<mxfile host="app.diagrams.net" modified="2022-12-09T09:10:00.593Z" agent="5.0 (Macintosh; Intel Mac OS X 10_15_7) AppleWebKit/537.36 (KHTML, like Gecko) Chrome/108.0.0.0 Safari/537.36 Edg/108.0.1462.46" etag="d6ClhNfU1YtfJcz3cMbW" version="20.6.2" type="github">
  <diagram id="WwQ9fsGPVEZZAcWzKNW-" name="Page-1">
    <mxGraphModel dx="1099" dy="1978" grid="1" gridSize="10" guides="1" tooltips="1" connect="1" arrows="1" fold="1" page="1" pageScale="1" pageWidth="1600" pageHeight="900" math="0" shadow="0">
      <root>
        <mxCell id="0" />
        <mxCell id="1" parent="0" />
        <mxCell id="duXGTn2hxUsq0OPUVO5f-8" style="edgeStyle=orthogonalEdgeStyle;rounded=0;orthogonalLoop=1;jettySize=auto;html=1;entryX=0.5;entryY=1;entryDx=0;entryDy=0;entryPerimeter=0;exitX=1;exitY=0.5;exitDx=0;exitDy=0;exitPerimeter=0;" edge="1" parent="1" source="MhDs7VCkpcsFwgF2auXq-1" target="duXGTn2hxUsq0OPUVO5f-5">
          <mxGeometry relative="1" as="geometry" />
        </mxCell>
        <mxCell id="MhDs7VCkpcsFwgF2auXq-1" value="Azure ML Workspace&lt;br&gt;Private" style="strokeWidth=2;html=1;shape=mxgraph.flowchart.decision;whiteSpace=wrap;fillColor=#f8cecc;strokeColor=#b85450;rounded=0;" parent="1" vertex="1">
          <mxGeometry x="50" y="56" width="200" height="120" as="geometry" />
        </mxCell>
        <mxCell id="vFI6oHwBEkSrm9AYn2dn-7" value="No" style="edgeStyle=orthogonalEdgeStyle;orthogonalLoop=1;jettySize=auto;html=1;exitX=0.5;exitY=1;exitDx=0;exitDy=0;exitPerimeter=0;entryX=0.5;entryY=0;entryDx=0;entryDy=0;entryPerimeter=0;fontSize=12;fontColor=#330000;endArrow=none;endFill=0;" parent="1" source="MhDs7VCkpcsFwgF2auXq-2" target="vFI6oHwBEkSrm9AYn2dn-4" edge="1">
          <mxGeometry relative="1" as="geometry" />
        </mxCell>
        <mxCell id="vFI6oHwBEkSrm9AYn2dn-58" value="" style="edgeStyle=orthogonalEdgeStyle;orthogonalLoop=1;jettySize=auto;html=1;fontSize=12;fontColor=#330000;endArrow=classic;endFill=1;entryX=0;entryY=0.5;entryDx=0;entryDy=0;entryPerimeter=0;" parent="1" source="MhDs7VCkpcsFwgF2auXq-2" target="vFI6oHwBEkSrm9AYn2dn-66" edge="1">
          <mxGeometry relative="1" as="geometry">
            <mxPoint x="630" y="116" as="targetPoint" />
          </mxGeometry>
        </mxCell>
        <mxCell id="MhDs7VCkpcsFwgF2auXq-2" value="Use Public IP for Compute?" style="strokeWidth=2;html=1;shape=mxgraph.flowchart.decision;whiteSpace=wrap;fillColor=#f8cecc;strokeColor=#b85450;rounded=0;" parent="1" vertex="1">
          <mxGeometry x="380" y="56" width="200" height="120" as="geometry" />
        </mxCell>
        <mxCell id="8HzVC0G7KMN-IC99eYYN-5" value="Yes" style="endArrow=classic;html=1;rounded=0;exitX=1;exitY=0.5;exitDx=0;exitDy=0;exitPerimeter=0;entryX=0;entryY=0.5;entryDx=0;entryDy=0;entryPerimeter=0;labelPosition=center;verticalLabelPosition=top;align=center;verticalAlign=bottom;" parent="1" source="MhDs7VCkpcsFwgF2auXq-1" target="MhDs7VCkpcsFwgF2auXq-2" edge="1">
          <mxGeometry width="50" height="50" relative="1" as="geometry">
            <mxPoint x="490" y="416" as="sourcePoint" />
            <mxPoint x="540" y="366" as="targetPoint" />
          </mxGeometry>
        </mxCell>
        <mxCell id="8HzVC0G7KMN-IC99eYYN-7" value="Yes" style="endArrow=classic;html=1;rounded=0;exitX=0.5;exitY=1;exitDx=0;exitDy=0;exitPerimeter=0;labelPosition=center;verticalLabelPosition=top;align=center;verticalAlign=bottom;" parent="1" source="MhDs7VCkpcsFwgF2auXq-1" edge="1">
          <mxGeometry width="50" height="50" relative="1" as="geometry">
            <mxPoint x="260" y="126" as="sourcePoint" />
            <mxPoint x="150" y="256" as="targetPoint" />
          </mxGeometry>
        </mxCell>
        <mxCell id="8HzVC0G7KMN-IC99eYYN-8" value="Use VNET for Compute and Storage?" style="strokeWidth=2;html=1;shape=mxgraph.flowchart.decision;whiteSpace=wrap;fillColor=#f8cecc;strokeColor=#b85450;rounded=0;" parent="1" vertex="1">
          <mxGeometry x="50" y="256" width="200" height="120" as="geometry" />
        </mxCell>
        <mxCell id="8HzVC0G7KMN-IC99eYYN-11" value="No" style="endArrow=classic;html=1;rounded=0;labelPosition=center;verticalLabelPosition=top;align=center;verticalAlign=bottom;exitX=1;exitY=0.5;exitDx=0;exitDy=0;exitPerimeter=0;" parent="1" source="8HzVC0G7KMN-IC99eYYN-8" target="8HzVC0G7KMN-IC99eYYN-13" edge="1">
          <mxGeometry width="50" height="50" relative="1" as="geometry">
            <mxPoint x="250" y="336" as="sourcePoint" />
            <mxPoint x="150" y="446" as="targetPoint" />
          </mxGeometry>
        </mxCell>
        <mxCell id="8HzVC0G7KMN-IC99eYYN-13" value="" style="shape=image;html=1;verticalAlign=top;verticalLabelPosition=bottom;labelBackgroundColor=#ffffff;imageAspect=0;aspect=fixed;image=https://cdn4.iconfinder.com/data/icons/success-filloutline/64/success-goal-finance-achievement-mountains-128.png;rounded=0;" parent="1" vertex="1">
          <mxGeometry x="290" y="282" width="68" height="68" as="geometry" />
        </mxCell>
        <mxCell id="8HzVC0G7KMN-IC99eYYN-15" value="No" style="endArrow=classic;html=1;rounded=0;exitX=0.5;exitY=1;exitDx=0;exitDy=0;exitPerimeter=0;labelPosition=center;verticalLabelPosition=top;align=center;verticalAlign=bottom;entryX=0.5;entryY=0;entryDx=0;entryDy=0;" parent="1" source="8HzVC0G7KMN-IC99eYYN-8" target="8HzVC0G7KMN-IC99eYYN-17" edge="1">
          <mxGeometry width="50" height="50" relative="1" as="geometry">
            <mxPoint x="160" y="386" as="sourcePoint" />
            <mxPoint x="330" y="316" as="targetPoint" />
          </mxGeometry>
        </mxCell>
        <mxCell id="vFI6oHwBEkSrm9AYn2dn-3" value="" style="edgeStyle=orthogonalEdgeStyle;orthogonalLoop=1;jettySize=auto;html=1;fontSize=12;fontColor=#FFFFFF;endArrow=none;endFill=0;" parent="1" source="8HzVC0G7KMN-IC99eYYN-17" target="vFI6oHwBEkSrm9AYn2dn-1" edge="1">
          <mxGeometry relative="1" as="geometry" />
        </mxCell>
        <mxCell id="8HzVC0G7KMN-IC99eYYN-17" value="&lt;ul&gt;&lt;li&gt;&lt;span style=&quot;background-color: initial;&quot;&gt;Configure Private Endpoint for ACR&lt;/span&gt;&lt;/li&gt;&lt;li&gt;&lt;span style=&quot;background-color: initial;&quot;&gt;Configure Compute Clsuter to build docker image&lt;/span&gt;&lt;/li&gt;&lt;/ul&gt;" style="rounded=0;html=1;absoluteArcSize=1;arcSize=14;strokeWidth=2;fillColor=#fff2cc;strokeColor=#d6b656;labelPosition=center;verticalLabelPosition=middle;align=left;verticalAlign=middle;fontSize=12;whiteSpace=wrap;" parent="1" vertex="1">
          <mxGeometry x="50" y="436" width="200" height="80" as="geometry" />
        </mxCell>
        <mxCell id="vFI6oHwBEkSrm9AYn2dn-1" value="&lt;font&gt;Service Endpoint for ACR is not recommended&lt;/font&gt;" style="strokeWidth=2;html=1;shape=mxgraph.flowchart.terminator;whiteSpace=wrap;fontSize=12;fontColor=#FFFFFF;fillColor=#e51400;strokeColor=#B20000;rounded=0;" parent="1" vertex="1">
          <mxGeometry x="70" y="546" width="160" height="60" as="geometry" />
        </mxCell>
        <mxCell id="vFI6oHwBEkSrm9AYn2dn-12" style="edgeStyle=orthogonalEdgeStyle;orthogonalLoop=1;jettySize=auto;html=1;entryX=0.5;entryY=0;entryDx=0;entryDy=0;entryPerimeter=0;fontSize=12;fontColor=#330000;endArrow=classic;endFill=1;" parent="1" source="vFI6oHwBEkSrm9AYn2dn-4" target="vFI6oHwBEkSrm9AYn2dn-10" edge="1">
          <mxGeometry relative="1" as="geometry" />
        </mxCell>
        <mxCell id="vFI6oHwBEkSrm9AYn2dn-4" value="Use No-public IP (NPIP)" style="verticalLabelPosition=middle;verticalAlign=middle;html=1;shape=mxgraph.flowchart.on-page_reference;fontSize=12;fontColor=#330000;labelPosition=center;align=center;" parent="1" vertex="1">
          <mxGeometry x="395" y="206" width="170" height="60" as="geometry" />
        </mxCell>
        <mxCell id="vFI6oHwBEkSrm9AYn2dn-9" style="edgeStyle=orthogonalEdgeStyle;orthogonalLoop=1;jettySize=auto;html=1;entryX=0;entryY=0.5;entryDx=0;entryDy=0;entryPerimeter=0;fontSize=12;fontColor=#330000;endArrow=none;endFill=0;" parent="1" source="vFI6oHwBEkSrm9AYn2dn-8" target="vFI6oHwBEkSrm9AYn2dn-4" edge="1">
          <mxGeometry relative="1" as="geometry" />
        </mxCell>
        <mxCell id="vFI6oHwBEkSrm9AYn2dn-8" value="&lt;font&gt;Still Preview feature&lt;/font&gt;" style="strokeWidth=2;html=1;shape=mxgraph.flowchart.terminator;whiteSpace=wrap;fontSize=12;fontColor=#FFFFFF;fillColor=#e51400;strokeColor=#B20000;rounded=0;" parent="1" vertex="1">
          <mxGeometry x="240" y="146" width="160" height="60" as="geometry" />
        </mxCell>
        <mxCell id="vFI6oHwBEkSrm9AYn2dn-21" style="edgeStyle=orthogonalEdgeStyle;orthogonalLoop=1;jettySize=auto;html=1;entryX=0.5;entryY=0;entryDx=0;entryDy=0;fontSize=12;fontColor=#330000;endArrow=classic;endFill=1;entryPerimeter=0;" parent="1" target="vFI6oHwBEkSrm9AYn2dn-44" edge="1">
          <mxGeometry relative="1" as="geometry">
            <mxPoint x="480" y="456" as="sourcePoint" />
            <mxPoint x="730" y="476" as="targetPoint" />
          </mxGeometry>
        </mxCell>
        <mxCell id="vFI6oHwBEkSrm9AYn2dn-30" value="Yes" style="edgeStyle=orthogonalEdgeStyle;orthogonalLoop=1;jettySize=auto;html=1;entryX=0.5;entryY=0;entryDx=0;entryDy=0;fontSize=12;fontColor=#330000;endArrow=classic;endFill=1;" parent="1" source="vFI6oHwBEkSrm9AYn2dn-10" target="vFI6oHwBEkSrm9AYn2dn-14" edge="1">
          <mxGeometry relative="1" as="geometry" />
        </mxCell>
        <mxCell id="vFI6oHwBEkSrm9AYn2dn-31" value="No" style="edgeStyle=orthogonalEdgeStyle;orthogonalLoop=1;jettySize=auto;html=1;entryX=0;entryY=0.5;entryDx=0;entryDy=0;fontSize=12;fontColor=#330000;endArrow=classic;endFill=1;" parent="1" source="vFI6oHwBEkSrm9AYn2dn-10" target="vFI6oHwBEkSrm9AYn2dn-22" edge="1">
          <mxGeometry relative="1" as="geometry" />
        </mxCell>
        <mxCell id="vFI6oHwBEkSrm9AYn2dn-49" style="edgeStyle=orthogonalEdgeStyle;orthogonalLoop=1;jettySize=auto;html=1;entryX=0;entryY=0.5;entryDx=0;entryDy=0;entryPerimeter=0;fontSize=12;fontColor=#330000;endArrow=classic;endFill=1;" parent="1" source="vFI6oHwBEkSrm9AYn2dn-10" target="vFI6oHwBEkSrm9AYn2dn-48" edge="1">
          <mxGeometry relative="1" as="geometry" />
        </mxCell>
        <mxCell id="vFI6oHwBEkSrm9AYn2dn-10" value="Get python package &lt;br&gt;from Internet?" style="strokeWidth=2;html=1;shape=mxgraph.flowchart.decision;whiteSpace=wrap;fillColor=#f8cecc;strokeColor=#b85450;rounded=0;" parent="1" vertex="1">
          <mxGeometry x="380" y="296" width="200" height="120" as="geometry" />
        </mxCell>
        <mxCell id="vFI6oHwBEkSrm9AYn2dn-14" value="&lt;ul&gt;&lt;li&gt;Cofigure UDR to reach to public IPs to access the internret (Visual Network NAT, Firewall with public IP)&lt;/li&gt;&lt;/ul&gt;" style="rounded=0;html=1;absoluteArcSize=1;arcSize=14;strokeWidth=2;fillColor=#fff2cc;strokeColor=#d6b656;labelPosition=center;verticalLabelPosition=middle;align=left;verticalAlign=middle;fontSize=12;whiteSpace=wrap;" parent="1" vertex="1">
          <mxGeometry x="380" y="476" width="200" height="80" as="geometry" />
        </mxCell>
        <mxCell id="vFI6oHwBEkSrm9AYn2dn-18" style="edgeStyle=orthogonalEdgeStyle;orthogonalLoop=1;jettySize=auto;html=1;entryX=0;entryY=0.5;entryDx=0;entryDy=0;fontSize=12;fontColor=#330000;endArrow=none;endFill=0;" parent="1" source="vFI6oHwBEkSrm9AYn2dn-19" target="vFI6oHwBEkSrm9AYn2dn-14" edge="1">
          <mxGeometry relative="1" as="geometry">
            <mxPoint x="405" y="486" as="targetPoint" />
          </mxGeometry>
        </mxCell>
        <mxCell id="vFI6oHwBEkSrm9AYn2dn-19" value="&lt;font&gt;Proxy server is not supported&lt;/font&gt;" style="strokeWidth=2;html=1;shape=mxgraph.flowchart.terminator;whiteSpace=wrap;fontSize=12;fontColor=#FFFFFF;fillColor=#e51400;strokeColor=#B20000;rounded=0;" parent="1" vertex="1">
          <mxGeometry x="270" y="406" width="160" height="60" as="geometry" />
        </mxCell>
        <mxCell id="vFI6oHwBEkSrm9AYn2dn-22" value="&lt;ul&gt;&lt;li&gt;Upload pre-built docker image to ACR&lt;/li&gt;&lt;/ul&gt;" style="rounded=0;html=1;absoluteArcSize=1;arcSize=14;strokeWidth=2;fillColor=#fff2cc;strokeColor=#d6b656;labelPosition=center;verticalLabelPosition=middle;align=left;verticalAlign=middle;fontSize=12;whiteSpace=wrap;" parent="1" vertex="1">
          <mxGeometry x="640" y="242" width="200" height="80" as="geometry" />
        </mxCell>
        <mxCell id="vFI6oHwBEkSrm9AYn2dn-26" value="Question about customer requirements" style="strokeWidth=2;html=1;shape=mxgraph.flowchart.decision;whiteSpace=wrap;fillColor=#f8cecc;strokeColor=#b85450;rounded=0;" parent="1" vertex="1">
          <mxGeometry x="1320" y="4" width="200" height="120" as="geometry" />
        </mxCell>
        <mxCell id="vFI6oHwBEkSrm9AYn2dn-27" value="Action Item" style="rounded=0;html=1;absoluteArcSize=1;arcSize=14;strokeWidth=2;fillColor=#fff2cc;strokeColor=#d6b656;labelPosition=center;verticalLabelPosition=middle;align=center;verticalAlign=middle;fontSize=12;whiteSpace=wrap;" parent="1" vertex="1">
          <mxGeometry x="1330" y="250" width="200" height="80" as="geometry" />
        </mxCell>
        <mxCell id="vFI6oHwBEkSrm9AYn2dn-28" value="Status of configuration" style="verticalLabelPosition=middle;verticalAlign=middle;html=1;shape=mxgraph.flowchart.on-page_reference;fontSize=12;fontColor=#330000;labelPosition=center;align=center;" parent="1" vertex="1">
          <mxGeometry x="1350" y="364" width="170" height="60" as="geometry" />
        </mxCell>
        <mxCell id="vFI6oHwBEkSrm9AYn2dn-29" value="&lt;font&gt;Alert&lt;/font&gt;" style="strokeWidth=2;html=1;shape=mxgraph.flowchart.terminator;whiteSpace=wrap;fontSize=12;fontColor=#FFFFFF;fillColor=#e51400;strokeColor=#B20000;rounded=0;" parent="1" vertex="1">
          <mxGeometry x="1340" y="154" width="160" height="60" as="geometry" />
        </mxCell>
        <mxCell id="vFI6oHwBEkSrm9AYn2dn-33" value="&lt;ul&gt;&lt;li&gt;Use NSG to allow internet connection to pip/conda&lt;/li&gt;&lt;/ul&gt;" style="rounded=0;html=1;absoluteArcSize=1;arcSize=14;strokeWidth=2;fillColor=#fff2cc;strokeColor=#d6b656;labelPosition=center;verticalLabelPosition=middle;align=left;verticalAlign=middle;fontSize=12;whiteSpace=wrap;" parent="1" vertex="1">
          <mxGeometry x="500" y="652" width="200" height="80" as="geometry" />
        </mxCell>
        <mxCell id="vFI6oHwBEkSrm9AYn2dn-35" value="&lt;ul&gt;&lt;li&gt;Use Azure Firewall to allow connection to pip/conda using FQDN&lt;/li&gt;&lt;/ul&gt;" style="rounded=0;html=1;absoluteArcSize=1;arcSize=14;strokeWidth=2;fillColor=#fff2cc;strokeColor=#d6b656;labelPosition=center;verticalLabelPosition=middle;align=left;verticalAlign=middle;fontSize=12;whiteSpace=wrap;fontColor=#330000;" parent="1" vertex="1">
          <mxGeometry x="760" y="652" width="200" height="80" as="geometry" />
        </mxCell>
        <mxCell id="vFI6oHwBEkSrm9AYn2dn-46" style="edgeStyle=orthogonalEdgeStyle;orthogonalLoop=1;jettySize=auto;html=1;fontSize=12;fontColor=#330000;endArrow=classic;endFill=1;" parent="1" source="vFI6oHwBEkSrm9AYn2dn-44" target="vFI6oHwBEkSrm9AYn2dn-33" edge="1">
          <mxGeometry relative="1" as="geometry" />
        </mxCell>
        <mxCell id="vFI6oHwBEkSrm9AYn2dn-47" style="edgeStyle=orthogonalEdgeStyle;orthogonalLoop=1;jettySize=auto;html=1;fontSize=12;fontColor=#330000;endArrow=classic;endFill=1;" parent="1" source="vFI6oHwBEkSrm9AYn2dn-44" target="vFI6oHwBEkSrm9AYn2dn-35" edge="1">
          <mxGeometry relative="1" as="geometry" />
        </mxCell>
        <mxCell id="vFI6oHwBEkSrm9AYn2dn-44" value="Internet connection to both outside Azure/Microsoft DC and insider Azure" style="verticalLabelPosition=middle;verticalAlign=middle;html=1;shape=mxgraph.flowchart.on-page_reference;fontSize=12;fontColor=#330000;labelPosition=center;align=center;whiteSpace=wrap;" parent="1" vertex="1">
          <mxGeometry x="655" y="476" width="170" height="60" as="geometry" />
        </mxCell>
        <mxCell id="vFI6oHwBEkSrm9AYn2dn-51" style="edgeStyle=orthogonalEdgeStyle;orthogonalLoop=1;jettySize=auto;html=1;entryX=0;entryY=0.5;entryDx=0;entryDy=0;fontSize=12;fontColor=#330000;endArrow=classic;endFill=1;" parent="1" source="vFI6oHwBEkSrm9AYn2dn-48" target="vFI6oHwBEkSrm9AYn2dn-53" edge="1">
          <mxGeometry relative="1" as="geometry">
            <mxPoint x="830" y="386" as="targetPoint" />
          </mxGeometry>
        </mxCell>
        <mxCell id="vFI6oHwBEkSrm9AYn2dn-55" style="edgeStyle=orthogonalEdgeStyle;orthogonalLoop=1;jettySize=auto;html=1;entryX=0;entryY=0.5;entryDx=0;entryDy=0;fontSize=12;fontColor=#330000;endArrow=classic;endFill=1;" parent="1" source="vFI6oHwBEkSrm9AYn2dn-48" target="vFI6oHwBEkSrm9AYn2dn-54" edge="1">
          <mxGeometry relative="1" as="geometry" />
        </mxCell>
        <mxCell id="vFI6oHwBEkSrm9AYn2dn-48" value="Internet connection to both outside Azure/Microsoft DC and insider Azure" style="verticalLabelPosition=middle;verticalAlign=middle;html=1;shape=mxgraph.flowchart.on-page_reference;fontSize=12;fontColor=#330000;labelPosition=center;align=center;whiteSpace=wrap;" parent="1" vertex="1">
          <mxGeometry x="620" y="356" width="170" height="60" as="geometry" />
        </mxCell>
        <mxCell id="vFI6oHwBEkSrm9AYn2dn-53" value="&lt;ul&gt;&lt;li&gt;Use NSG to allow internet connection to inside Azure&lt;/li&gt;&lt;/ul&gt;" style="rounded=0;html=1;absoluteArcSize=1;arcSize=14;strokeWidth=2;fillColor=#fff2cc;strokeColor=#d6b656;labelPosition=center;verticalLabelPosition=middle;align=left;verticalAlign=middle;fontSize=12;whiteSpace=wrap;" parent="1" vertex="1">
          <mxGeometry x="890" y="296" width="200" height="80" as="geometry" />
        </mxCell>
        <mxCell id="vFI6oHwBEkSrm9AYn2dn-54" value="&lt;ul&gt;&lt;li&gt;Use Azure Firewall to allow connection to inside Azure&lt;/li&gt;&lt;/ul&gt;" style="rounded=0;html=1;absoluteArcSize=1;arcSize=14;strokeWidth=2;fillColor=#fff2cc;strokeColor=#d6b656;labelPosition=center;verticalLabelPosition=middle;align=left;verticalAlign=middle;fontSize=12;whiteSpace=wrap;fontColor=#330000;" parent="1" vertex="1">
          <mxGeometry x="890" y="396" width="200" height="80" as="geometry" />
        </mxCell>
        <mxCell id="vFI6oHwBEkSrm9AYn2dn-62" value="&lt;ul&gt;&lt;li&gt;Use NSG to allow internet connection to pip/conda&lt;/li&gt;&lt;/ul&gt;" style="rounded=0;html=1;absoluteArcSize=1;arcSize=14;strokeWidth=2;fillColor=#fff2cc;strokeColor=#d6b656;labelPosition=center;verticalLabelPosition=middle;align=left;verticalAlign=middle;fontSize=12;whiteSpace=wrap;" parent="1" vertex="1">
          <mxGeometry x="890" width="200" height="80" as="geometry" />
        </mxCell>
        <mxCell id="vFI6oHwBEkSrm9AYn2dn-63" value="&lt;ul&gt;&lt;li&gt;Use Azure Firewall to allow connection to pip/conda using FQDN&lt;/li&gt;&lt;/ul&gt;" style="rounded=0;html=1;absoluteArcSize=1;arcSize=14;strokeWidth=2;fillColor=#fff2cc;strokeColor=#d6b656;labelPosition=center;verticalLabelPosition=middle;align=left;verticalAlign=middle;fontSize=12;whiteSpace=wrap;fontColor=#330000;" parent="1" vertex="1">
          <mxGeometry x="890" y="136" width="200" height="80" as="geometry" />
        </mxCell>
        <mxCell id="vFI6oHwBEkSrm9AYn2dn-64" style="edgeStyle=orthogonalEdgeStyle;orthogonalLoop=1;jettySize=auto;html=1;fontSize=12;fontColor=#330000;endArrow=classic;endFill=1;entryX=0;entryY=0.5;entryDx=0;entryDy=0;" parent="1" source="vFI6oHwBEkSrm9AYn2dn-66" target="vFI6oHwBEkSrm9AYn2dn-62" edge="1">
          <mxGeometry relative="1" as="geometry" />
        </mxCell>
        <mxCell id="vFI6oHwBEkSrm9AYn2dn-65" style="edgeStyle=orthogonalEdgeStyle;orthogonalLoop=1;jettySize=auto;html=1;fontSize=12;fontColor=#330000;endArrow=classic;endFill=1;" parent="1" source="vFI6oHwBEkSrm9AYn2dn-66" target="vFI6oHwBEkSrm9AYn2dn-63" edge="1">
          <mxGeometry relative="1" as="geometry" />
        </mxCell>
        <mxCell id="vFI6oHwBEkSrm9AYn2dn-66" value="Internet connection to both outside Azure/Microsoft DC and insider Azure" style="verticalLabelPosition=middle;verticalAlign=middle;html=1;shape=mxgraph.flowchart.on-page_reference;fontSize=12;fontColor=#330000;labelPosition=center;align=center;whiteSpace=wrap;" parent="1" vertex="1">
          <mxGeometry x="650" y="86" width="170" height="60" as="geometry" />
        </mxCell>
        <mxCell id="duXGTn2hxUsq0OPUVO5f-1" value="&lt;ul&gt;&lt;li&gt;Configure Private Endpoint to ACR&lt;/li&gt;&lt;/ul&gt;" style="rounded=0;html=1;absoluteArcSize=1;arcSize=14;strokeWidth=2;fillColor=#fff2cc;strokeColor=#d6b656;labelPosition=center;verticalLabelPosition=middle;align=left;verticalAlign=middle;fontSize=12;whiteSpace=wrap;" vertex="1" parent="1">
          <mxGeometry x="210" y="-330" width="200" height="80" as="geometry" />
        </mxCell>
        <mxCell id="duXGTn2hxUsq0OPUVO5f-2" value="&lt;ul&gt;&lt;li&gt;Configure Private Endpoitn to Azure Key Vault&lt;/li&gt;&lt;/ul&gt;" style="rounded=0;html=1;absoluteArcSize=1;arcSize=14;strokeWidth=2;fillColor=#fff2cc;strokeColor=#d6b656;labelPosition=center;verticalLabelPosition=middle;align=left;verticalAlign=middle;fontSize=12;whiteSpace=wrap;" vertex="1" parent="1">
          <mxGeometry x="460" y="-320" width="200" height="80" as="geometry" />
        </mxCell>
        <mxCell id="duXGTn2hxUsq0OPUVO5f-3" value="&lt;ul&gt;&lt;li&gt;Configure Private Endpoint to Azure Storage Account&lt;/li&gt;&lt;/ul&gt;" style="rounded=0;html=1;absoluteArcSize=1;arcSize=14;strokeWidth=2;fillColor=#fff2cc;strokeColor=#d6b656;labelPosition=center;verticalLabelPosition=middle;align=left;verticalAlign=middle;fontSize=12;whiteSpace=wrap;" vertex="1" parent="1">
          <mxGeometry x="550" y="-190" width="200" height="80" as="geometry" />
        </mxCell>
        <mxCell id="duXGTn2hxUsq0OPUVO5f-10" style="edgeStyle=orthogonalEdgeStyle;rounded=0;orthogonalLoop=1;jettySize=auto;html=1;exitX=0.5;exitY=0;exitDx=0;exitDy=0;exitPerimeter=0;" edge="1" parent="1" source="duXGTn2hxUsq0OPUVO5f-5" target="duXGTn2hxUsq0OPUVO5f-9">
          <mxGeometry relative="1" as="geometry" />
        </mxCell>
        <mxCell id="duXGTn2hxUsq0OPUVO5f-12" style="edgeStyle=orthogonalEdgeStyle;rounded=0;orthogonalLoop=1;jettySize=auto;html=1;entryX=0;entryY=0.5;entryDx=0;entryDy=0;" edge="1" parent="1" source="duXGTn2hxUsq0OPUVO5f-5" target="duXGTn2hxUsq0OPUVO5f-2">
          <mxGeometry relative="1" as="geometry" />
        </mxCell>
        <mxCell id="duXGTn2hxUsq0OPUVO5f-13" style="edgeStyle=orthogonalEdgeStyle;rounded=0;orthogonalLoop=1;jettySize=auto;html=1;entryX=0;entryY=0.5;entryDx=0;entryDy=0;" edge="1" parent="1" source="duXGTn2hxUsq0OPUVO5f-5" target="duXGTn2hxUsq0OPUVO5f-3">
          <mxGeometry relative="1" as="geometry" />
        </mxCell>
        <mxCell id="duXGTn2hxUsq0OPUVO5f-14" style="edgeStyle=orthogonalEdgeStyle;rounded=0;orthogonalLoop=1;jettySize=auto;html=1;entryX=0.5;entryY=1;entryDx=0;entryDy=0;" edge="1" parent="1" source="duXGTn2hxUsq0OPUVO5f-5" target="duXGTn2hxUsq0OPUVO5f-1">
          <mxGeometry relative="1" as="geometry" />
        </mxCell>
        <mxCell id="duXGTn2hxUsq0OPUVO5f-5" value="Private Endpoint Azure ML Workspace" style="verticalLabelPosition=middle;verticalAlign=middle;html=1;shape=mxgraph.flowchart.on-page_reference;fontSize=12;fontColor=#330000;labelPosition=center;align=center;whiteSpace=wrap;" vertex="1" parent="1">
          <mxGeometry x="188" y="-100" width="170" height="60" as="geometry" />
        </mxCell>
        <mxCell id="duXGTn2hxUsq0OPUVO5f-9" value="&lt;ul&gt;&lt;li&gt;Configure Private Endpoint to Azure ML Workspace&lt;/li&gt;&lt;/ul&gt;" style="rounded=0;html=1;absoluteArcSize=1;arcSize=14;strokeWidth=2;fillColor=#fff2cc;strokeColor=#d6b656;labelPosition=center;verticalLabelPosition=middle;align=left;verticalAlign=middle;fontSize=12;whiteSpace=wrap;" vertex="1" parent="1">
          <mxGeometry x="10" y="-230" width="200" height="80" as="geometry" />
        </mxCell>
      </root>
    </mxGraphModel>
  </diagram>
</mxfile>
